<svg width="521" height="682" viewBox="0 0 521 682" fill="none" xmlns="http://www.w3.org/2000/svg">
<path fill-rule="evenodd" clip-rule="evenodd" d="M105.4 131.93C118.13 57.33 183.23 0.369995 261.39 0.369995C286.74 0.369995 310.7 6.37 331.97 17.01L105.4 131.93ZM29.43 258.7H50.71C63.3199 258.7 75.24 255.7 85.83 250.41C71.4099 222.95 63.24 191.72 63.24 158.62C63.24 125.52 71.4099 94.2801 85.83 66.83C75.25 61.54 63.33 58.55 50.71 58.55H29.43C18.41 58.55 9.47998 67.4801 9.47998 78.5001V99.7801C9.47998 123.16 19.72 144.19 35.95 158.63C19.72 173.07 9.47998 194.1 9.47998 217.48V238.76C9.47998 249.77 18.41 258.71 29.43 258.71V258.7ZM417.3 279.55C476.3 291.51 520.85 343.78 520.85 406.26V521.22H418.83V420.97C418.83 409.95 409.9 401.02 398.88 401.02C387.86 401.02 378.93 409.95 378.93 420.97V681.31H142.08V420.97C142.08 409.95 133.15 401.02 122.13 401.02C111.11 401.02 102.18 409.95 102.18 420.97V521.22H0.160034V406.26C0.160034 343.8 44.68 291.55 103.66 279.56C139.93 326.49 196.75 356.77 260.51 356.77C303.88 356.77 345.11 342.95 379.72 316.82C393.87 306.14 406.51 293.54 417.3 279.55ZM0.170044 661.36C0.170044 672.38 9.10004 681.31 20.12 681.31H102.19V561.11H0.170044V661.36ZM418.83 681.31H500.9C511.92 681.31 520.85 672.38 520.85 661.36V561.11H418.83V681.31ZM261.39 316.87C348.66 316.87 419.64 245.88 419.64 158.62C419.64 156.16 419.58 153.71 419.47 151.27L224.34 116.34L104.25 177.26C113.5 255.77 180.44 316.88 261.39 316.88V316.87ZM369.18 42.86C388.52 60.88 403.36 83.68 411.79 109.36L283.4 86.37L369.18 42.86Z" fill="#4D4E50"/>
</svg>
