<svg width="749" height="465" viewBox="0 0 749 465" fill="none" xmlns="http://www.w3.org/2000/svg">
<path fill-rule="evenodd" clip-rule="evenodd" d="M121.87 452.91L18.4197 410.72V410.73C15.2497 407.55 12.0697 406.45 8.88968 407.55L8.66246 407.683C6.66089 408.853 4.72968 409.981 4.72968 412.93L0.569691 427.73C-0.40031 432.86 2.64969 437.26 11.0897 438.24L121.87 452.91ZM97.4197 308.37L140.7 411.82L73.2097 323.29C68.0697 317.91 66.8497 312.53 72.2297 309.47L84.8197 300.91C85.7997 299.93 86.8997 299.93 87.8797 299.93C91.0597 299.93 94.3597 302.99 97.4197 308.37ZM663.92 464.52L735.58 459.14V459.12C743.03 458.14 749.39 451.78 748.54 444.2L746.46 423.17L733.87 262.99C732.89 245.99 728.61 232.42 719.07 215.55L615.62 37.4C602.9 14.2899 573.43 -1.61005 549.1 0.469964L295.86 19.42C271.65 21.5 245.24 41.43 236.8 63.69L161.85 256.77C154.39 275.97 153.41 289.54 154.39 306.42L164.91 442.39H148.03C141.68 442.39 137.52 446.8 137.52 452.91C137.52 459.02 141.67 464.4 148.03 464.4H155.041C155.444 464.446 155.854 464.47 156.27 464.47H282.15C288.042 464.47 292.82 459.693 292.82 453.8V453.3C292.82 447.407 288.042 442.63 282.15 442.63H265.817L265.3 435.91L644.97 406.57L647.05 430.9L649.13 451.93C650.1 459.14 655.48 465.5 663.92 464.52ZM649.13 212.38L232.54 245.15L283.28 112.23C293.79 85.82 303.21 78.3599 329.62 77.38L526.73 62.5799C528.81 61.6099 532.11 61.6099 535.17 61.6099C555.23 61.6099 565.86 67.97 578.46 89L649.13 212.38ZM248.3 292.47C272.51 290.39 294.76 309.35 296.84 333.68C298.93 358.01 279.97 380.14 255.64 382.22C231.43 384.3 210.27 365.35 208.19 341.01C205.01 315.7 222.99 293.45 248.3 292.47ZM638.6 261.78C662.82 259.7 685.07 278.66 687.15 302.99H687.14C689.22 327.33 670.26 349.58 645.93 351.54C621.72 353.62 600.57 334.54 598.49 310.33C596.41 286.12 614.27 263.86 638.6 261.78ZM24.6497 325.25C26.8497 323.17 28.9297 322.19 31.0097 322.19V322.2C35.1597 322.2 38.4597 325.25 42.4997 330.76L127 440.32L17.4397 355.82C8.99968 349.34 6.66968 343.23 12.0597 337.85L24.6497 325.25Z" fill="#4D4E50"/>
</svg>
