<svg width="666" height="566" viewBox="0 0 666 566" fill="none" xmlns="http://www.w3.org/2000/svg">
<path fill-rule="evenodd" clip-rule="evenodd" d="M635.79 12.27L662.23 67.58H662.24C664.61 73 665.29 77.06 665.29 82.16V136.43C665.36 138.8 663.7 140.46 661.3 140.46H640.28C637.91 140.46 636.22 138.74 636.22 136.4V122.85H523.25V136.43C523.25 138.8 521.53 140.49 519.19 140.49H497.78C495.41 140.49 493.72 138.77 493.72 136.43V82.16C493.72 77.06 494.37 73 497.1 67.58L523.61 12.27C526.67 5.83002 535.14 0.410034 542.29 0.410034H617.51C624.65 0.410034 632.74 5.84003 635.79 12.27ZM549.72 18.4C541.89 18.4 538.83 20.12 535.13 27.56L517.17 65.53H641.28L623 27.56C619.29 20.09 616.24 18.4 608.41 18.4H549.72ZM507.92 93.3C507.92 100.44 513.73 106.55 521.17 106.55C528.64 106.55 534.42 100.77 534.42 93.3C534.42 85.83 528.67 79.73 521.17 80.05C514.03 80.05 507.92 86.16 507.92 93.3ZM624.26 93.3C624.32 100.44 630.07 106.55 637.51 106.55C644.98 106.55 650.76 100.77 650.76 93.3C650.76 85.83 644.65 80.05 637.51 80.05C630.37 80.05 624.26 86.15 624.26 93.3ZM457.29 152.88L542.36 330.85C549.98 348.3 552.18 361.36 552.18 377.77V552.39C552.39 560.02 547.06 565.35 539.33 565.35H471.71C464.08 565.35 458.65 559.81 458.65 552.29V508.71H95.1899V552.39C95.1899 560.02 89.6499 565.45 82.1299 565.45H13.2599C5.62993 565.45 0.189941 559.92 0.189941 552.39V377.77C0.189941 361.36 2.28993 348.3 11.0599 330.85L96.3399 152.88C106.16 132.18 133.43 114.73 156.43 114.73H398.46C421.44 114.73 447.47 132.18 457.29 152.88ZM180.36 172.63C155.17 172.63 145.35 178.16 133.43 202.1L75.6499 324.26H474.95L416.12 202.1C404.2 178.06 394.38 172.63 369.19 172.63H180.36ZM45.8599 413.61C45.8599 436.6 64.5699 456.25 88.4999 456.25C112.53 456.25 131.14 437.65 131.14 413.61C131.14 389.57 112.64 369.93 88.4999 370.97C65.5099 370.97 45.8599 390.62 45.8599 413.61ZM420.19 413.61C420.4 436.6 438.9 456.25 462.83 456.25C486.87 456.25 505.46 437.65 505.46 413.61C505.46 389.57 485.82 370.97 462.83 370.97C439.84 370.97 420.19 390.62 420.19 413.61Z" fill="#4D4E50"/>
</svg>
