<svg width="609" height="451" viewBox="0 0 609 451" fill="none" xmlns="http://www.w3.org/2000/svg">
<path fill-rule="evenodd" clip-rule="evenodd" d="M186.019 311.552C185.903 310.974 185.786 310.389 185.659 309.802H185.761C177.499 271.415 199.787 245.006 221.906 219.101C227.638 212.373 229.627 206.586 229.492 198.512C229.364 191.065 229.489 183.609 229.614 176.157C229.818 163.979 230.022 151.809 229.122 139.705C227.318 115.38 229.674 91.3279 232.029 67.2811C233.636 50.8865 235.241 34.4949 235.528 18.0203C235.831 1.56916 254.276 -5.56268 269.483 4.93342C274.91 8.66779 277.068 9.87873 282.43 5.034C289.746 -1.59295 299.222 -0.617363 307.921 2.71271C316.221 5.90803 316.182 13.0028 316.143 19.952C316.137 20.9071 316.131 21.8592 316.148 22.7977C316.485 44.6873 327.882 55.6326 350.338 55.6326C360.677 55.6326 371.019 55.6043 381.361 55.576C408.628 55.5028 435.901 55.4295 463.158 55.868C474.251 56.036 478.432 52.5711 477.151 41.6033C476.707 37.7869 476.819 33.9178 476.932 30.0447C476.999 27.7391 477.067 25.4315 477.016 23.1336C476.78 14.4881 476.611 5.26936 486.861 2.3426C496.538 -0.382012 506.924 -2.16521 514.072 8.39826C516.129 10.9559 517.073 13.6463 517.478 16.3719C517.849 13.6131 518.792 10.8543 520.748 8.23029C528.942 -1.86248 539.495 -0.785332 549.779 3.18439C557.493 6.17072 557.627 12.5828 557.763 19.0779C557.805 21.0711 557.847 23.0721 558.108 24.9842C564.694 72.5106 564.478 120.271 564.261 168.013C564.204 180.391 564.148 192.768 564.21 205.139C564.21 209.816 565.997 212.911 569.1 216.713C570.319 218.191 571.544 219.669 572.77 221.148C583.708 234.347 594.739 247.66 603.289 262.332C611.493 276.449 609.109 292.549 606.815 308.027C606.402 310.807 605.993 313.568 605.65 316.294C604.882 322.449 599.108 321.83 593.624 321.241C591.645 321.028 589.703 320.82 588.049 320.936C582.149 321.374 578.44 318.312 578.44 311.954C578.405 298.497 578.338 285.074 578.44 271.617C578.44 269.498 578.709 266.099 579.99 265.427C595.398 257.453 588.841 252.494 582.153 247.435C579.078 245.11 575.976 242.763 574.967 240.094C574.881 241.728 574.778 243.366 574.676 245.005C574.417 249.133 574.157 253.268 574.157 257.387C574.135 270.016 574.098 282.647 574.061 295.28C573.93 340.324 573.799 385.384 574.326 430.443C574.494 445.514 570.246 451.099 554.331 450.999C479.766 450.54 405.201 450.566 330.624 450.593C301.333 450.603 272.04 450.613 242.744 450.595C219.985 450.595 219.917 450.392 219.917 426.91V238.311C213.003 241.565 209.642 246.651 206.461 251.467C205.53 252.875 204.615 254.26 203.631 255.569L203.482 255.763C202.305 257.271 200.369 259.752 203.631 260.751L204.318 260.955C209.669 262.539 214.343 263.924 214.083 271.28C213.9 276.422 213.943 281.595 213.986 286.765C214.07 296.753 214.154 306.731 212.6 316.463C211.66 322.43 205.976 321.8 200.536 321.197C198.555 320.977 196.607 320.762 194.932 320.87C187.977 321.324 187.068 316.785 186.019 311.552ZM517.461 25.7235L517.376 24.6483C517.073 28.1463 516.702 31.5779 517.41 34.6737C517.954 31.866 517.711 28.8426 517.461 25.7235ZM506.807 106.14C505.108 106.143 503.453 106.134 501.799 106.097V106.062C491.616 105.861 485.344 110.806 485.209 120.832C485.041 130.823 490.942 136.138 501.259 136.005C505.777 135.937 510.296 136.307 514.746 135.937C517.213 135.736 519.91 135.828 522.634 135.92C533.09 136.274 543.937 136.642 543.643 120.495C543.378 105.658 533.068 105.936 523.526 106.195C520.931 106.265 518.393 106.334 516.129 106.097C512.746 106.097 509.712 106.137 506.807 106.14ZM325.566 79.4822C320.99 79.449 315.895 79.4139 315.372 86.0115L315.339 85.9783C314.782 93.1893 320.027 93.117 324.617 93.0545C325.038 93.0487 325.453 93.0428 325.859 93.0428C372.996 93.1776 420.1 93.1434 467.237 93.0428C467.691 93.0399 468.156 93.0447 468.628 93.0496C473.178 93.0975 478.287 93.1512 477.859 86.0789C477.455 79.3768 472.433 79.4285 467.713 79.4774C467.316 79.4813 466.92 79.4852 466.529 79.4852H397.543V79.4178C373.974 79.4178 350.439 79.3504 326.87 79.4852C326.443 79.4881 326.007 79.4852 325.566 79.4822ZM522.603 233.937C522.434 224.282 517.141 218.159 506.789 218.159V218.193C433.891 218.058 361.026 217.957 288.162 218.058C275.787 218.058 270.291 224.652 270.662 237.302C271.201 255.199 271.438 273.131 270.561 290.995C269.752 307.143 276.597 312.896 292.343 312.627C317.142 312.194 341.958 312.277 366.779 312.359C376.719 312.392 386.658 312.426 396.599 312.426V312.358C406.692 312.358 416.786 312.342 426.883 312.325C452.103 312.284 477.33 312.243 502.54 312.459C514.308 312.559 522.535 309.431 522.603 296.008C522.625 292.559 522.651 289.111 522.678 285.663C522.809 268.421 522.94 251.18 522.603 233.937ZM292.696 106.169C287.867 105.974 283.013 105.779 278.249 106.197L278.282 106.13C275.838 106.34 273.156 106.232 270.447 106.123C260.563 105.725 250.309 105.314 249.859 120.26C249.358 136.41 259.884 136.067 269.318 135.76C271.95 135.674 274.498 135.591 276.697 135.87C279.088 135.87 281.263 135.883 283.3 135.894C287.008 135.916 290.258 135.934 293.523 135.87C303.2 135.668 308.089 130.05 308.089 121.033C308.123 111.883 302.829 106.6 293.388 106.197L292.696 106.169ZM68.1222 326.053C68.4093 326.562 68.7501 327.167 69.3224 327.793L73.0431 331.892L160.683 407.163L95.0128 311.953C89.8927 304.753 85.463 302.982 80.5831 307.403L69.2023 317.732C66.5724 319.972 65.6525 322.222 66.4327 324.623H66.4425C67.3439 324.672 67.6661 325.244 68.1222 326.053ZM153.112 417.003L23.8722 355.772C14.9425 350.763 7.88294 352.793 6.10267 359.062L0.552861 377.363C-0.227412 379.763 -0.297725 382.803 1.10267 384.343C0.322392 385.043 0.253056 386.522 1.73255 386.593C3.91224 388.993 7.86243 389.913 13.1427 390.913L153.112 417.003ZM5.8927 442.942L6.63294 427.602C6.78235 421.392 12.3624 419.303 20.1124 421.153L134.253 441.323L18.7023 450.373C13.2023 450.993 10.1124 450.692 7.93274 448.293L6.52259 446.743C6.31263 446.511 6.16419 446.23 6.06263 445.916C6.01282 445.763 5.97376 445.603 5.94349 445.436C5.90247 445.208 5.87806 444.967 5.86438 444.717C5.83509 444.153 5.86341 443.547 5.8927 442.942Z" fill="#4D4E50"/>
</svg>
