<svg width="745" height="688" viewBox="0 0 745 688" fill="none" xmlns="http://www.w3.org/2000/svg">
<path fill-rule="evenodd" clip-rule="evenodd" d="M644.98 235.05C655.47 225.98 653.29 214.95 640.13 210.56L593.18 194.85C580.03 190.46 573.41 176.3 578.5 163.4L596.62 117.32C601.7 104.42 594.64 95.66 580.96 97.8799L532.08 105.79C518.38 108.01 505.97 98.54 504.46 84.7599L499.08 35.5299C497.59 21.74 487.28 17.2899 476.19 25.61L436.6 55.34C425.5 63.6599 410.1 61.05 402.36 49.54L374.74 8.44995C366.99 -3.06005 355.78 -2.23005 349.85 10.3099L328.59 55.03C322.65 67.55 307.8 72.3999 295.59 65.7999L252.03 42.2599C239.84 35.6599 230.31 41.6199 230.85 55.47L232.82 104.95C233.38 118.8 222.47 130 208.6 129.83L159.1 129.23C145.24 129.06 139.56 138.75 146.49 150.76L171.23 193.66C178.16 205.67 173.71 220.65 161.35 226.95L117.24 249.41C104.88 255.72 104.36 266.94 116.06 274.34L157.9 300.82C169.62 308.25 172.64 323.57 164.63 334.9L136 375.29C127.99 386.61 132.73 396.78 146.56 397.9L195.91 401.9C209.74 403.02 219.55 415.19 217.69 428.94L211.13 478.01C209.29 491.74 218.23 498.55 231 493.14L276.56 473.76C289.31 468.32 303.66 474.53 308.42 487.57L325.4 534.07C330.16 547.09 341.24 548.97 350.01 538.23L381.35 499.89C390.13 489.15 405.7 487.99 415.98 497.32L452.64 530.61C462.91 539.93 473.59 536.43 476.37 522.85L486.29 474.33C489.07 460.75 502.33 452.47 515.75 455.97L563.67 468.39C577.11 471.87 584.95 463.82 581.08 450.5L567.33 402.95C563.48 389.62 571.39 376.14 584.89 372.99L633.1 361.71C646.61 358.56 649.8 347.8 640.2 337.8L605.91 302.07C596.32 292.05 597.03 276.44 607.53 267.39L644.99 235.01L644.98 235.05ZM584.87 419.09L598.62 466.64C602.47 479.97 594.64 488.01 581.21 484.53L533.3 472.09C519.87 468.61 506.61 476.89 503.83 490.47L495.29 532.16L635.46 687.55L646.56 592.84L744.09 589.59L583.92 411.97C583.88 414.31 584.17 416.69 584.87 419.09ZM213.42 512.19L258.98 492.81C271.75 487.37 286.08 493.58 290.84 506.62L291.63 508.79L98.8499 682.63L95.5999 585.12L0.889893 574.02L171.23 420.39L178.33 420.97C192.17 422.09 201.97 434.25 200.13 447.99L193.55 497.06C191.72 510.82 200.65 517.62 213.42 512.19Z" fill="#4D4E50"/>
</svg>
