<svg width="693" height="561" viewBox="0 0 693 561" fill="none" xmlns="http://www.w3.org/2000/svg">
<path fill-rule="evenodd" clip-rule="evenodd" d="M651.49 274.45L690.41 312L690.4 312.01C692.12 313.67 692.84 316.15 692.28 318.47L677.44 379.2C676.82 381.7 674.78 383.68 672.24 384.21L614.43 396.14C613.98 396.23 613.53 396.28 613.06 396.28C611.29 396.28 609.54 395.56 608.29 394.3L456.06 241.98C447.68 243.38 438.75 244.6 430.3 244.51C398.06 244.51 367.6 231.81 344.54 208.75C321.53 185.74 308.86 155.14 308.86 122.6C308.86 90.0599 321.53 59.4699 344.54 36.45C367.5 13.62 398.1 0.789919 430.69 0.829927C463.27 0.829927 493.87 13.48 516.84 36.45C549.39 68.99 560.85 118.21 546.05 161.84L543.26 170.06L588.58 212.81C591.05 215.07 591.41 219.12 589.36 221.77L582.35 231.17L626.38 274.96L645.99 272.61C648 272.35 650.02 273.04 651.49 274.45ZM391.41 109.2C394.24 117.17 402.04 122.65 410.5 122.65V122.66C420.09 122.66 428.47 115.67 430.37 106.35C432.06 98.0599 428.16 89.3099 420.91 84.9899C413.26 80.4099 403.17 81.45 396.66 87.5599C390.82 92.9999 388.73 101.65 391.41 109.2ZM425.91 461.5H642.83C670.25 461.5 692.47 483.68 692.47 511.04C692.47 538.4 670.25 560.58 642.83 560.58H350.97C321.44 560.58 293.11 548.99 272.08 528.3L90.2101 349.38H0.310059V197.04H175.39C215.07 197.04 253.13 212.77 281.19 240.78L428.61 387.91C430.55 389.83 432.28 391.89 433.82 394.03L423.77 404.06C403.24 424.55 369.82 424.56 349.28 404.06L282.98 337.89C273.22 328.15 257.39 328.15 247.63 337.89C237.87 347.63 237.87 363.43 247.63 373.17L313.93 439.34C333.94 459.32 360.23 469.31 386.52 469.31C399.93 469.31 413.34 466.7 425.91 461.5Z" fill="#4D4E50"/>
</svg>
