<svg width="710" height="447" viewBox="0 0 710 447" fill="none" xmlns="http://www.w3.org/2000/svg">
<path d="M432.43 60.47L374.12 136.87L411.45 47.72C412.37 43.08 416.09 40.42 418.75 40.42C419.68 40.42 420.49 41.34 422.34 42.16L427.79 44.83L433.24 47.5C437.99 50.51 437.07 54.92 432.42 60.49L432.43 60.47ZM353.36 144.17L369.71 15.83C371.45 6.78002 368.78 0.410034 362.41 0.410034H344.2C337.83 0.410034 335.16 5.86002 336.9 15.83L353.36 144.17ZM376.08 283.29C381.53 296.04 383.38 304.28 383.38 315.99V437.03C383.38 441.67 379.79 446.07 374.34 446.07H327.04C321.59 446.07 318 442.47 318 437.03V407H65.8402V437.03C65.8402 441.67 62.2502 446.07 56.7902 446.07H9.26021C3.81021 446.07 0.220215 442.47 0.220215 437.03V315.99C0.220215 304.05 1.96022 295 7.52022 283.29L66.6502 159.59C73.0202 144.99 91.2302 133.27 107.57 133.27H274.99C291.33 133.27 309.65 145.21 316.95 159.59L376.08 283.29ZM52.9702 277.96H329.48L289.49 192.51C281.26 176.17 274.07 172.45 256.79 172.45H119.41C106.66 174.19 100.28 178.83 94.0202 192.51L52.9802 277.96H52.9702ZM91.2302 339.75C91.2302 323.4 77.5502 310.65 61.2002 310.65C44.8502 310.65 32.1002 323.4 32.1002 339.75C32.1002 356.1 44.8502 369.78 61.2002 369.78C77.5502 369.78 91.2302 356.22 91.2302 339.75ZM351.39 339.75C351.39 323.4 337.71 310.65 321.37 310.65C305.03 310.65 292.27 323.4 292.27 339.75C292.27 356.1 305.02 369.78 321.37 369.78C337.71 369.9 351.39 356.22 351.39 339.75ZM333.3 144.98L295.97 55.82C294.23 51.18 291.33 48.52 288.67 48.52H286C285.07 48.52 285.07 49.45 284.26 49.45L278.81 52.12L274.17 55.71C269.53 58.38 270.58 63.01 275.1 68.46L333.3 144.98ZM707.08 319.69L679.71 422.53L676.11 436.21C675.19 440.85 669.74 443.52 665.21 442.59L619.76 430.65C615.12 429.72 612.46 424.28 613.39 419.75L616.99 406.07L621.63 391.46L396.83 331.4V314.13C396.83 306.83 395.9 298.71 394.16 291.41C406.1 290.48 416.88 282.36 420.48 269.5C425.12 254.08 415.03 237.74 399.5 233.09C389.53 231.35 379.44 234.02 372.14 240.4L351.15 196.69C352.08 195.76 352.89 194.02 353.82 193.1L442.97 89.34C451.2 79.37 464.88 73.92 477.64 72.99C482.28 72.99 485.87 72.99 489.58 73.92L648.88 114.85C665.22 119.49 679.83 135.83 682.5 151.25L707.89 285.97C710.79 299.65 709.98 308.93 707.08 319.71V319.69ZM668.01 272.51L650.73 179.76C647.13 161.67 640.76 156.11 624.41 151.47L497.93 116.81C491.55 115.07 487.03 115.07 482.51 115.07C475.21 116 468.83 120.52 461.52 128.75L399.61 200.51L668 272.51H668.01ZM650.73 301.61C648.99 300.68 647.13 300.68 645.28 300.68H639.83C627.89 301.61 617.92 309.73 615.25 322.59C610.61 338.01 619.89 354.35 635.31 359C650.73 363.64 667.08 353.55 671.72 338.02C676.12 322.37 666.28 306.02 650.74 301.61H650.73Z" fill="#4D4E50"/>
</svg>
