<svg width="545" height="669" viewBox="0 0 545 669" fill="none" xmlns="http://www.w3.org/2000/svg">
<path fill-rule="evenodd" clip-rule="evenodd" d="M0.130005 40.27C0.130005 18.31 17.98 0.469971 39.91 0.469971H504.47C526.41 0.469971 544.26 18.3199 544.26 40.27V527.56H457.59C423.12 527.56 395.09 555.6 395.09 590.06V668.21H39.91C17.98 668.21 0.130005 650.34 0.130005 628.41V40.27ZM103.85 364.8H440.55V337.41H103.85V364.8ZM103.85 268.96H440.55V241.57H103.85V268.96ZM103.85 173.12H440.55V145.74H103.85V173.12ZM417.8 653.23V590.05C417.8 568.11 435.65 550.25 457.59 550.25H527.02L417.8 653.23Z" fill="#4D4E50"/>
</svg>
