<svg width="562" height="642" viewBox="0 0 562 642" fill="none" xmlns="http://www.w3.org/2000/svg">
<path fill-rule="evenodd" clip-rule="evenodd" d="M280.765 0.613342C280.82 0.617249 280.875 0.619965 280.93 0.619965C281.07 0.589966 281.24 0.579956 281.38 0.579956V0.649963C296.5 1.76996 330.32 11.81 380.9 29.87C416.509 42.5938 451.811 49.4071 484.363 55.6897C498.808 58.4776 512.711 61.161 525.86 64.21C568.61 74.12 560.73 124.47 560.73 124.47C560.73 124.47 544.68 327.48 538.16 360.87C507.1 519.88 277.55 641.6 277.55 641.6H277.48C277.48 641.6 52.26 516.13 22.44 360.02C16.2 327.35 0.860016 129.03 0.860016 129.03C0.860016 129.03 -6.65999 80.01 34.22 69.45C46.8483 66.1879 60.2369 63.2605 74.1828 60.2112C105.725 53.3145 140.117 45.7945 175.01 32.37C224.93 13.17 265.12 2.17996 280.48 0.659973V0.589966C280.575 0.596313 280.67 0.606628 280.765 0.613342ZM473.158 101.642C439.493 95.0692 401.445 87.6402 362.13 73.52C310.18 54.84 288.7 49.35 280.6 47.73C268.11 50.2 237.06 58.59 193.48 75.26C154.79 90.07 117.6 98.13 84.87 105.21L82.6892 105.684C71.1694 108.189 60.2214 110.569 50.07 113.1C49.5 115.72 49.25 119.52 49.53 122.38C49.704 123.34 49.7292 123.689 49.7831 124.433C49.8005 124.673 49.8208 124.954 49.85 125.31C55.72 201.17 66.64 329.85 70.87 351.96C83.86 419.79 144.78 483.26 193.82 524.74C225.86 551.83 256.79 573.04 277.49 586.27C298.59 573.22 330.44 552.1 363.16 525.03C412.53 484.2 474.44 420.94 487.79 352.5C492.17 330 503.49 198.9 509.59 121.49C509.646 120.804 509.711 120.395 509.77 120.021C509.837 119.592 509.898 119.209 509.93 118.51C510.31 110 509.02 110.19 509.02 110.19C503.75 109.06 473.3 101.67 473.3 101.67L473.158 101.642ZM279.71 65.0601C279.81 65.0601 279.93 65.08 280.04 65.08L280.03 65.0901C280.09 65.0846 280.156 65.0761 280.22 65.068C280.273 65.0612 280.325 65.0546 280.37 65.05V65.11C291.55 66.01 316.56 73.9701 353.89 88.2401C380.148 98.2832 406.165 103.692 430.142 108.677C440.782 110.889 451.021 113.017 460.7 115.43C492.13 123.27 486.34 162.6 486.34 162.6C486.34 162.6 474.54 321.26 469.75 347.36C446.89 471.71 277.53 567.55 277.53 567.55H277.49C277.49 567.55 110.49 469.61 88.32 346.95C83.68 321.27 72.27 165.34 72.27 165.34C72.27 165.34 66.67 126.76 97.08 118.54C106.458 116.007 116.397 113.739 126.745 111.377C150.182 106.027 175.721 100.198 201.61 89.7301C238.6 74.7701 268.36 66.26 279.71 65.11V65.0601Z" fill="#4D4E50"/>
</svg>
