<svg width="694" height="660" viewBox="0 0 694 660" fill="none" xmlns="http://www.w3.org/2000/svg">
<path fill-rule="evenodd" clip-rule="evenodd" d="M370.03 157.66C361.53 149.93 353.42 141.82 345.69 133.32L345.68 133.31C340.667 128.336 335.656 123.36 330.645 118.384L330.634 118.373L330.584 118.322C314.733 102.582 298.882 86.8422 282.98 71.16C281.16 69.37 281.16 68.49 282.98 66.69C299.745 50.1652 316.445 33.5765 333.144 16.9902L333.144 16.9895L333.145 16.9888C337.323 12.8387 341.501 8.68873 345.68 4.53998C348.07 0.839986 350.26 -1.04002 354.43 3.14998C390.916 39.7741 427.47 76.3238 464.024 112.873L464.071 112.919L464.239 113.088L464.407 113.256C477.839 126.686 491.272 140.116 504.7 153.55C504.906 153.749 505.046 154.024 505.185 154.297C505.248 154.421 505.311 154.544 505.38 154.66C508.519 157.76 511.653 160.865 514.786 163.969L514.789 163.971C523.956 173.051 533.12 182.128 542.39 191.1C545.62 194.22 544.54 196.12 541.87 198.77C524.382 216.122 506.952 233.544 489.992 250.496C485.712 254.774 481.463 259.021 477.25 263.23C453.498 239.837 429.737 216.444 405.976 193.051L405.735 192.813C393.833 181.096 381.931 169.378 370.03 157.66ZM691.83 572.72L692.13 572.57C692.53 572.52 692.91 572.56 693.29 572.68V594.32C690.72 593.979 690.535 595.526 690.35 597.074C690.214 598.205 690.079 599.337 689.01 599.73C689.041 600.392 689.068 601.054 689.096 601.717L689.097 601.72L689.097 601.723L689.099 601.765C689.125 602.388 689.151 603.013 689.18 603.64L689.285 603.749C691.26 605.791 693.208 607.804 690.83 610.87C688.87 613.4 686.65 613.72 684.06 611.91C683.053 612.893 682.315 614.103 681.578 615.313C680.449 617.166 679.319 619.019 677.22 620.06C673.7 624.92 668.82 628.01 663.55 630.6L662.811 630.965C662.205 631.266 661.599 631.566 660.995 631.866L659.81 632.455C659.243 632.737 658.676 633.018 658.11 633.3C656.681 633.521 655.341 634.094 654.001 634.667C651.89 635.569 649.779 636.471 647.32 636C646.057 635.853 644.896 636.319 643.734 636.785C642.292 637.364 640.849 637.943 639.21 637.35C630.54 637.28 622.11 636.29 614.81 630.97C612.287 630.902 610.548 629.45 608.808 627.997C607.734 627.1 606.659 626.202 605.4 625.63C604.4 629.23 602.05 628.41 599.89 627.09C596.83 625.22 597 622.6 598.7 619.84C598.258 619.348 597.824 618.848 597.39 618.347L597.388 618.345L597.387 618.344C596.515 617.338 595.641 616.331 594.7 615.39C576.999 597.687 559.296 579.987 541.593 562.286L541.546 562.239C475.651 496.355 409.755 430.47 343.99 364.46C339.16 359.62 336.03 359.71 332.51 364.86C328.45 370.8 325.44 369.36 320.89 364.78C281.543 325.159 242.046 285.687 202.894 246.561L202.809 246.475C193.511 237.183 184.232 227.91 174.98 218.66C195.77 197.372 216.52 176.133 237.271 154.895L237.295 154.87L237.51 154.65C240.226 151.894 242.945 149.14 245.665 146.386L245.668 146.383C253.82 138.128 261.975 129.87 270.05 121.54C272.1 119.42 273.37 119.43 275.42 121.54C283.856 130.231 292.37 138.848 300.883 147.464L300.886 147.467C303.725 150.341 306.564 153.214 309.4 156.09C309.892 156.532 310.392 156.966 310.893 157.401C311.9 158.274 312.909 159.149 313.85 160.09C349.23 195.45 384.59 230.82 419.95 266.19C425.51 271.75 425.78 272.06 420.1 277.01C415.84 280.71 416.07 282.79 420.08 286.79C505.29 371.73 590.34 456.83 675.37 541.95C675.805 542.385 676.294 542.788 676.787 543.194C678.357 544.488 679.96 545.809 679.93 548.26C686.875 554.718 689.263 563.392 691.65 572.066L691.83 572.72ZM56.3 305.53L239.64 488.87C239.84 489.07 240.038 489.271 240.236 489.472C241.774 491.032 243.305 492.585 245.44 493.4C250.05 495.16 253.03 494.61 252.39 488.68C252.867 488.152 253.336 487.616 253.804 487.081L253.805 487.081C254.799 485.945 255.793 484.81 256.86 483.75C264.904 475.693 272.954 467.643 281.003 459.594L281.065 459.531C292.587 448.009 304.107 436.488 315.61 424.95C315.905 424.655 316.241 424.374 316.577 424.093C318.166 422.763 319.75 421.437 316.96 418.68C293.254 395.241 269.628 371.722 246 348.201C239.637 341.867 233.275 335.533 226.91 329.2C226.5 328.741 226.096 328.275 225.691 327.808L225.689 327.805L225.688 327.805C224.782 326.76 223.874 325.714 222.9 324.74C197.96 299.776 173.007 274.824 148.051 249.87L148.051 249.87L137.984 239.804C135.086 236.906 132.188 234.008 129.29 231.11C125.75 227.57 122.237 227.537 118.75 231.01C106.328 243.348 93.8981 255.683 81.4679 268.019L81.4485 268.038C73.132 276.291 64.8152 284.545 56.5 292.8C50.58 292.15 50.01 295.12 51.77 299.74C52.5851 301.875 54.138 303.406 55.6985 304.944L55.7013 304.947C55.9013 305.144 56.1014 305.341 56.3 305.54V305.53ZM335.686 617.263C340.143 617.26 344.599 617.257 349.05 617.34H349.06C349.529 617.349 350.016 617.31 350.507 617.27C352.201 617.133 353.94 616.992 355.15 618.83L355 657.84C353.989 660.004 352.303 659.668 350.723 659.354C350.179 659.246 349.647 659.14 349.16 659.14C235.1 659.23 121.03 659.23 6.96999 659.14C6.48024 659.137 5.94531 659.242 5.39775 659.35C3.821 659.66 2.13943 659.99 1.12999 657.83L0.97998 618.82C3.11221 616.73 5.60815 616.98 8.08363 617.227C9.09111 617.328 10.0952 617.428 11.07 617.37C14.6548 617.159 18.2544 617.195 21.8515 617.232C23.3619 617.248 24.8718 617.263 26.38 617.26L26.68 529.57C27.9305 527.683 29.7315 527.842 31.4701 527.997C31.9421 528.039 32.4095 528.08 32.86 528.08C129.66 528.04 226.46 528.04 323.26 528.08C323.709 528.08 324.174 528.039 324.644 527.998C326.382 527.846 328.18 527.688 329.44 529.57L329.74 617.26C331.722 617.266 333.704 617.265 335.686 617.263Z" fill="#4D4E50"/>
</svg>
