<svg width="660" height="387" viewBox="0 0 660 387" fill="none" xmlns="http://www.w3.org/2000/svg">
<path d="M0.939941 337.87C0.939941 331.86 0.939941 325.86 0.939941 319.85C1.32994 319.13 1.90994 318.45 2.07994 317.68C21.8599 228.67 41.6799 139.66 61.3399 50.6199C68.3199 19.0199 90.5999 0.749956 122.97 0.729956C183.42 0.699956 243.87 0.719956 304.32 0.729956C306.39 0.729956 308.47 0.919934 310.57 1.01993V77.9299C304.57 77.9299 299.03 77.8899 293.48 77.9299C281.09 78.0299 272.36 86.12 272.44 97.35C272.52 108.58 281.23 116.49 293.75 116.51C318.19 116.56 342.62 116.57 367.06 116.51C379.53 116.48 388.22 108.45 388.2 97.1799C388.18 85.9299 379.48 78.0099 366.99 77.9299C361.3 77.8899 355.61 77.9299 349.95 77.9299V0.729956C352.33 0.729956 354.42 0.729956 356.51 0.729956C417.39 0.729956 478.26 0.699935 539.14 0.739935C570.11 0.759935 592.08 18.2599 598.85 48.6099C614.51 118.8 629.99 189.04 645.61 259.25C650.2 279.9 655 300.51 659.7 321.14V336.58C659.32 337.57 658.8 338.52 658.57 339.54C651.91 368.94 629.8 386.7 599.66 386.75C573.5 386.79 547.35 386.64 521.19 386.88C516.86 386.92 514.82 385.51 512.98 381.69C497.14 348.69 481.06 315.79 465.07 282.86C464.28 281.23 463.61 279.54 462.25 276.44C465.61 278.29 467.61 279.32 469.54 280.48C483.69 288.95 497.79 297.51 511.98 305.92C522.4 312.09 533.82 309.78 539.63 300.52C545.62 290.99 542.48 279.48 531.94 272.93C524.3 268.18 516.52 263.66 508.81 259.03C453.71 225.97 398.68 192.8 343.41 160.03C338.6 157.18 332.15 155.6 326.58 155.86C318.69 156.23 312.78 163.3 311.32 171.15C309.87 178.93 313.38 186.68 320.99 191.28C345.91 206.36 370.98 221.2 395.83 236.4C398.89 238.27 401.78 241.36 403.36 244.56C425.45 289.53 447.3 334.61 469.19 379.67C470.19 381.72 471.03 383.85 472.16 386.44C470.51 386.59 469.52 386.75 468.52 386.75C421.35 386.76 374.19 386.69 327.02 386.89C322.78 386.91 321.56 384.74 320.11 381.74C304.15 348.79 288.14 315.87 272.15 282.93C271.35 281.28 270.65 279.59 269.27 276.47C272.57 278.26 274.58 279.26 276.49 280.41C291 289.11 305.41 297.99 320.02 306.52C329.88 312.27 341.49 309.27 346.92 300.02C352.29 290.87 349.54 279.81 340.13 273.67C334.75 270.16 329.15 266.99 323.64 263.68C265.97 229.08 208.35 194.38 150.51 160.07C145.69 157.21 139.26 155.59 133.68 155.83C125.81 156.16 119.85 163.22 118.34 171.05C116.8 179.04 120.43 186.7 128.46 191.55C153.4 206.6 178.44 221.49 203.33 236.63C205.9 238.19 208.42 240.67 209.73 243.34C232.37 289.47 254.82 335.69 277.28 381.9C277.95 383.29 278.3 384.83 278.84 386.41C277.74 386.59 277.32 386.73 276.9 386.73C203.58 386.73 130.25 386.93 56.9299 386.6C38.5099 386.52 23.0999 378.35 12.6599 363.13C7.48994 355.58 4.76994 346.35 0.939941 337.88V337.87Z" fill="#4D4E50"/>
</svg>
