<svg width="476" height="700" viewBox="0 0 476 700" fill="none" xmlns="http://www.w3.org/2000/svg">
<path fill-rule="evenodd" clip-rule="evenodd" d="M1.53992 0.300049H0.169922V699.52C0.169922 468.49 0.169922 237.46 0.229919 6.43004C0.229919 5.04697 0.625214 3.6593 1.02002 2.27328C1.20755 1.61494 1.39499 0.95697 1.53992 0.300049ZM475 7.03004C475 5.4696 474.845 3.90431 474.69 2.34093L474.689 2.33539C474.622 1.6564 474.555 0.977768 474.5 0.300049H1.54004V697.71H101.16V517.26C101.16 502.42 104.74 498.89 119.73 498.89C199.01 498.88 278.27 498.88 357.54 498.89C371.65 498.89 375.26 502.49 375.26 516.56V688.96V697.6H474.67C474.706 696.776 474.76 695.941 474.814 695.098C474.911 693.587 475.01 692.051 475.01 690.51C475.02 462.68 475.02 234.86 474.99 7.03004H475ZM176.02 40.7401C176.06 30.08 180.7 25.18 191.29 25.14C222.62 25.01 253.94 25.01 285.27 25.14C295.98 25.18 300.49 29.82 300.52 40.67C300.62 72 300.63 103.32 300.52 134.65C300.49 145.32 295.84 149.89 285 149.92C253.9 150.03 222.8 150.03 191.71 149.92C180.69 149.89 176.06 145.07 176.03 134.04C175.987 122.855 175.995 111.671 176.004 100.482C176.007 96.0056 176.01 91.5283 176.01 87.05C176.01 82.3541 176.005 77.7004 175.999 73.07V73.062V73.0538V73.0455V73.037V73.0284V73.0197V73.0109V73.0023V72.9935V72.985C175.987 62.1924 175.974 51.5248 176.03 40.7401H176.02ZM176.02 189.97C176.05 179.63 180.75 174.82 190.93 174.79C222.49 174.7 254.03 174.7 285.58 174.79C295.9 174.81 300.41 179.35 300.51 189.86C300.615 201.033 300.592 212.197 300.569 223.361C300.56 228.084 300.55 232.806 300.55 237.53C300.55 242.392 300.559 247.167 300.569 251.896V251.908C300.59 262.631 300.61 273.115 300.52 283.82C300.43 294.83 296.2 299.23 285.34 299.26C254.02 299.39 222.69 299.39 191.38 299.28C180.48 299.23 176.05 294.72 176.02 283.93C175.96 252.6 175.96 221.3 176.02 189.97ZM26.35 41.61C26.41 29.8201 31.08 25.14 42.91 25.12C73.55 25.06 104.21 25.04 134.85 25.12C146.31 25.14 151.13 29.8501 151.16 41.16C151.26 72.0301 151.26 102.9 151.18 133.78C151.15 145.16 146.37 149.91 134.97 149.94C104.1 150 73.21 150.01 42.34 149.92C31.08 149.89 26.43 145.04 26.36 133.56C26.2957 122.526 26.308 111.503 26.3202 100.479V100.479V100.478V100.478V100.478V100.477V100.477V100.477V100.476V100.476V100.475V100.475V100.475V100.474V100.474V100.474V100.473V100.473L26.3203 100.392C26.3252 96.0081 26.33 91.6245 26.33 87.2401C26.33 82.5858 26.3246 77.9733 26.3192 73.3837C26.3066 62.7479 26.2942 52.2351 26.35 41.61ZM26.35 191.25C26.38 179.32 30.95 174.77 42.82 174.76C73.47 174.73 104.11 174.73 134.75 174.76C146.61 174.77 151.16 179.32 151.18 191.29C151.24 221.7 151.23 252.12 151.18 282.54C151.16 295.02 146.9 299.25 134.37 299.3C123.914 299.341 113.471 299.331 103.027 299.32H103.026H103.025H103.023H103.022H103.021H103.019H103.018H103.017H103.016H103.014H103.013H103.012H103.01H103.009H103.008H103.007H103.005C98.2545 299.315 93.5032 299.31 88.75 299.31C83.99 299.31 79.1848 299.318 74.3561 299.326H74.3392H74.3223H74.3056H74.2889H74.272H74.2555H74.2388H74.2221H74.2054H74.1885H74.1717H74.1548H74.1377H74.1207H74.1036C63.5853 299.344 52.9569 299.361 42.44 299.3C30.83 299.22 26.39 294.82 26.36 283.18C26.28 252.53 26.3 221.89 26.35 191.25ZM151.15 433.69C151.1 444.3 146.28 448.81 135.5 448.83C104.39 448.87 73.3 448.87 42.21 448.83C31.09 448.81 26.41 444.28 26.38 433.18C26.2701 402.09 26.2701 370.98 26.38 339.89C26.41 328.86 31.09 324.49 42.38 324.45C53.159 324.394 63.9379 324.407 74.7237 324.419H74.7274H74.7312H74.735H74.7387H74.7425H74.7462H74.75H74.7537H74.7575H74.7612H74.765H74.7687H74.7725H74.7762H74.78H74.7838H74.7875C79.4202 324.425 84.0542 324.43 88.69 324.43C93.401 324.43 98.1511 324.423 102.922 324.415L102.986 324.415C113.842 324.398 124.806 324.381 135.67 324.45C146.43 324.51 151.12 328.99 151.16 339.72C151.27 371.04 151.29 402.37 151.16 433.69H151.15ZM300.51 433.69C300.48 444.55 295.98 448.81 285.03 448.83C253.94 448.87 222.85 448.87 191.76 448.83C180.51 448.81 176.03 444.38 176.02 433.16C175.96 402.07 175.96 370.98 176.02 339.89C176.03 329 180.47 324.52 191.26 324.45C202.103 324.381 212.95 324.398 223.795 324.415H223.796H223.797C228.615 324.422 233.433 324.43 238.25 324.43C243.068 324.43 247.886 324.422 252.703 324.415H252.704H252.705H252.706H252.707H252.708H252.709H252.71H252.711H252.712H252.714H252.715H252.716H252.717H252.718H252.719H252.72H252.721C263.554 324.398 274.384 324.381 285.22 324.45C296.11 324.51 300.48 328.78 300.52 339.73C300.63 371.06 300.63 402.37 300.52 433.69H300.51ZM450.07 433.01C450.04 444.41 445.76 448.81 434.58 448.83C403.47 448.89 372.38 448.87 341.29 448.83C330 448.81 325.7 444.53 325.69 433.15C325.63 402.06 325.63 370.97 325.69 339.87C325.72 328.65 330.03 324.46 341.49 324.45C372.35 324.38 403.22 324.38 434.08 324.45C445.89 324.46 450.04 328.66 450.08 340.42C450.113 350.853 450.102 361.282 450.091 371.713V371.714V371.715V371.716V371.717V371.718V371.72V371.721V371.722V371.723V371.724V371.725V371.726V371.727V371.728V371.729V371.731V371.732C450.086 376.951 450.08 382.17 450.08 387.39C450.08 392.331 450.085 397.183 450.09 401.987V402.015C450.101 412.427 450.111 422.615 450.07 433.01ZM450.07 284.19C450.01 294.66 445.67 299.22 435.2 299.26C403.66 299.39 372.12 299.39 340.56 299.26C330.08 299.22 325.72 294.74 325.7 284.26C325.61 252.7 325.61 221.16 325.7 189.61C325.74 179.27 330.35 174.81 340.85 174.77C372.18 174.71 403.5 174.71 434.83 174.77C445.57 174.81 450.02 179.36 450.07 190.24C450.125 200.918 450.109 211.595 450.094 222.273C450.087 227.255 450.08 232.238 450.08 237.22C450.08 242.203 450.087 247.186 450.094 252.17C450.109 262.849 450.125 273.526 450.07 284.19ZM450.07 134.2C450.05 145.24 445.47 149.89 434.31 149.92C403.46 150.01 372.58 150.01 341.71 149.94C330.12 149.91 325.72 145.41 325.69 133.81C325.647 122.617 325.655 111.429 325.664 100.242C325.667 95.7682 325.67 91.2941 325.67 86.8201C325.67 82.0313 325.664 77.2847 325.657 72.5609V72.5441C325.642 61.8261 325.628 51.226 325.69 40.5201C325.75 29.8201 330.29 25.17 341.07 25.14C372.16 25.03 403.27 25.03 434.36 25.12C445.5 25.17 450.05 29.83 450.07 40.89C450.12 72.0001 450.12 103.09 450.07 134.2ZM125.68 124.43V50.61V50.6L125.67 50.61L51.8599 50.61V124.44H125.68V124.43ZM350.92 124.44H350.91V50.73H350.92H424.91V124.44H350.92ZM225.43 524.22H126.48V697.81H225.43V524.22ZM251.36 523.98H350.09V697.6H251.36V523.98ZM125.54 349.69H51.8701V423.7H125.54V349.69ZM201.23 50.58H275.24V124.47H201.23V50.58ZM125.71 199.99H51.8201V274H125.71V199.99ZM201.26 199.85H275.06V274.02H201.26V199.85ZM424.76 349.38H351V423.62H424.76V349.38ZM350.83 200.06H424.9V273.89H350.83V200.06ZM275.32 349.67H275.31H201.4V423.6H275.31H275.32V349.67Z" fill="#4D4E50"/>
</svg>
