<svg width="512" height="512" viewBox="0 0 512 512" fill="none" xmlns="http://www.w3.org/2000/svg">
<path fill-rule="evenodd" clip-rule="evenodd" d="M240.96 511.08H270.9C273.887 510.675 276.88 510.308 279.873 509.941L279.885 509.939C286.43 509.136 292.976 508.333 299.45 507.14C371.11 493.95 427.28 456.73 468.3 396.79C492.21 361.86 505.72 322.91 510.23 280.82C510.489 278.413 510.782 276.007 511.075 273.6C511.201 272.567 511.327 271.533 511.45 270.5V240.55C511.045 237.56 510.677 234.562 510.309 231.564L510.309 231.562L510.309 231.56L510.309 231.558L510.309 231.556L510.308 231.554L510.308 231.552L510.308 231.551V231.55C509.506 225.007 508.703 218.461 507.51 211.99C494.31 140.31 457.09 84.14 397.16 43.11C362.22 19.19 323.35 4.79998 281.18 1.35998C190.02 -6.08002 114.94 26.13 56.7303 96.43C24.7603 135.05 6.32026 180.07 1.82026 230.01C-5.45974 310.89 20.2103 380.45 77.6303 437.73C115.8 475.8 162.14 498.82 215.33 507.79C221.143 508.769 227.003 509.444 232.865 510.118L232.877 510.119C235.572 510.43 238.268 510.74 240.96 511.08ZM414.61 255.58C414.52 341.93 342.06 414.34 255.85 414.23C169.52 414.12 97.1403 341.65 97.2402 255.41C97.3403 168.99 169.71 96.68 255.98 96.8C342.39 96.93 414.7 169.3 414.61 255.58ZM137.72 204.86C123.81 238.74 123.81 272.19 137.72 306.2L137.73 306.21C137.966 306.09 138.187 305.978 138.395 305.874C138.667 305.738 138.918 305.614 139.151 305.499C139.866 305.146 140.421 304.871 140.96 304.56C145.595 301.887 150.227 299.207 154.859 296.527L154.862 296.525C167.317 289.318 179.774 282.11 192.31 275.04C195.27 273.37 195.67 271.56 194.89 268.66C192.55 259.98 192.45 251.23 194.88 242.58C195.88 239.02 194.7 237.32 191.63 235.59C179.683 228.836 167.804 221.964 155.925 215.091L155.913 215.084L155.907 215.081L155.9 215.077L155.893 215.072L155.886 215.068L155.879 215.064L155.871 215.06C151.252 212.388 146.633 209.715 142.01 207.05C141.18 206.575 140.315 206.149 139.338 205.667C138.832 205.417 138.296 205.153 137.72 204.86ZM374.24 205.08C388.01 238.82 388.01 272.18 374.22 306.01C373.777 305.815 373.349 305.64 372.935 305.472C372.099 305.131 371.323 304.815 370.6 304.4C365.43 301.423 360.265 298.437 355.1 295.451L355.08 295.44L355.06 295.428L355.04 295.416L355.02 295.405L355.019 295.404L355.017 295.403L355.016 295.403L355.014 295.402L355.013 295.401C343.256 288.604 331.499 281.806 319.68 275.12C316.82 273.5 316.1 271.81 316.92 268.81C319.34 259.97 319.26 251.1 316.98 242.23C316.4 239.99 315.92 238.06 318.8 236.43C331.578 229.203 344.284 221.854 356.988 214.506C362.091 211.554 367.193 208.603 372.3 205.66C372.558 205.509 372.86 205.437 373.299 205.332L373.3 205.332C373.386 205.312 373.477 205.29 373.574 205.266C373.652 205.247 373.734 205.227 373.82 205.204C373.95 205.171 374.09 205.133 374.24 205.09V205.08ZM240.953 139.978C240.952 136.11 240.95 132.219 240.95 128.3V128.29C204.58 133.36 175.67 149.87 153.17 178.86C156.472 180.768 159.758 182.669 163.031 184.562L163.133 184.621L163.149 184.63C178.549 193.538 193.667 202.282 208.86 210.89C209.78 211.41 212.05 210.72 213 209.84C220.23 203.19 228.49 198.5 237.82 195.5C239.11 195.08 240.81 193.2 240.82 191.99C240.968 174.819 240.961 157.642 240.953 139.978ZM349.863 183.967L349.809 183.998L349.805 184.001C334.175 193.039 318.946 201.846 303.66 210.54C302.59 211.15 300.45 211.01 299.41 210.31C297.526 209.046 295.722 207.65 293.919 206.255C291.386 204.296 288.856 202.339 286.11 200.75C282.979 198.94 279.579 197.59 276.055 196.191L276.053 196.19C274.456 195.556 272.834 194.912 271.2 194.21V128.38C307.2 133.24 336.02 149.86 358.73 178.83V178.84C356.816 179.947 354.908 181.049 353.007 182.149L349.863 183.967ZM240.74 382.65V318.44C238.018 316.761 235.347 315.143 232.724 313.553C226.239 309.625 220.04 305.87 214.06 301.79C211.34 299.93 209.78 299.29 206.78 301.07C195.162 307.946 183.465 314.687 171.769 321.427C166.913 324.225 162.059 327.023 157.21 329.83C156.404 330.295 155.636 330.834 154.78 331.434C154.331 331.75 153.857 332.082 153.34 332.43C175.82 361.19 204.66 377.76 240.74 382.65ZM358.7 332.16L358.689 332.174C354.991 330.038 351.323 327.916 347.676 325.808L347.557 325.739C332.673 317.131 318.161 308.738 303.56 300.5C302.41 299.85 299.73 300.45 298.63 301.44C291.59 307.77 283.69 312.55 274.62 315.17C271.68 316.02 270.78 317.35 270.82 320.36C270.938 330.014 270.92 339.674 270.903 349.335V349.336C270.896 352.814 270.89 356.292 270.89 359.77V382.68C307.214 377.741 336.061 361.165 358.689 332.174L358.7 332.18V332.16ZM256.49 222.61C238.56 222.21 223.25 237.11 223.02 255.19C222.79 272.97 237.43 288 255.35 288.41C273.28 288.81 288.59 273.91 288.82 255.83C289.05 238.05 274.41 223.02 256.49 222.61Z" fill="#4D4E50"/>
</svg>
