<svg width="647" height="609" viewBox="0 0 647 609" fill="none" xmlns="http://www.w3.org/2000/svg">
<path fill-rule="evenodd" clip-rule="evenodd" d="M626.49 74.96C599.3 45.95 554.53 46.51 527.78 50.05L532.02 0.23999H115.72L119.96 50.05C93.21 46.5 48.45 45.95 21.25 74.96C-1.91002 99.66 -5.31003 137.18 11.12 186.48C40.8 275.5 145.3 300.74 196.31 307.83C230.51 337.82 275.18 355.99 323.88 355.99C372.58 355.99 417.24 337.82 451.45 307.83C502.46 300.75 606.96 275.51 636.64 186.48C653.07 137.18 649.66 99.66 626.51 74.96H626.49ZM61.37 169.74C51.85 141.17 51.3199 120.4 59.86 111.23C71.28 98.99 103.88 100 124.6 104.62L130.91 178.75C132.84 201.37 138.77 222.71 147.7 242.35C111.73 230.19 74.29 208.47 61.37 169.74ZM266.55 272.99L266.54 272.99V241.7H313.03V104.932L269.83 130.84V130.828L269.81 130.84V96.57L328.82 60.8H351.17L351.19 60.8V241.7L397.36 241.7L397.38 241.7V272.99H266.55ZM586.35 169.74C573.44 208.47 535.99 230.19 500.02 242.35C508.95 222.72 514.88 201.37 516.81 178.75L523.12 104.62C543.83 100.02 576.45 99.01 587.85 111.23C596.39 120.4 595.87 141.17 586.34 169.74H586.35ZM322.825 365.6C303.747 365.6 284.929 365.4 266.72 365.02V409.22H378.93V365.02C360.732 365.4 341.914 365.6 322.825 365.6ZM442.77 418.59H196.35C182.91 418.59 171.4 428.21 169 441.42L138.7 608.07H500.42L470.12 441.42C467.72 428.2 456.2 418.59 442.77 418.59Z" fill="#4D4E50"/>
</svg>
