<svg width="254" height="67" viewBox="0 0 254 67" fill="none" xmlns="http://www.w3.org/2000/svg">
<path d="M0.784949 48.4212H11.4771C11.8316 48.4212 12.1396 48.1852 12.2324 47.8439L24.912 0.986038C25.047 0.488805 24.6714 0 24.1567 0H13.4603C13.1059 0 12.7978 0.235975 12.705 0.577296L0.0296619 47.4352C-0.105362 47.9324 0.270172 48.4212 0.784949 48.4212Z" fill="white"/>
<path d="M11.3719 67.0003H22.0683C22.4227 67.0003 22.7307 66.7643 22.8236 66.423L35.5031 19.5651C35.6381 19.0679 35.2626 18.5791 34.7478 18.5791H24.0514C23.697 18.5791 23.389 18.815 23.2961 19.1564L10.6166 66.0142C10.4816 66.5115 10.8571 67.0003 11.3719 67.0003Z" fill="#134981"/>
<path d="M32.0516 48.4215H42.748C43.1024 48.4215 43.4104 48.1855 43.5033 47.8442L51.1321 19.5651C51.2671 19.0679 50.8916 18.5791 50.3768 18.5791H39.6804C39.326 18.5791 39.0179 18.815 38.9251 19.1564L31.2963 47.4354C31.1613 47.9326 31.5368 48.4215 32.0516 48.4215Z" fill="white"/>
<path d="M252.827 19.4216C252.97 19.4216 253.051 19.5016 253.089 19.5522C253.127 19.5985 253.181 19.7039 253.143 19.8514L246.148 47.3382C246.11 47.4815 245.979 47.5826 245.827 47.5826H53.6595C53.5161 47.5826 53.4359 47.5026 53.3979 47.452C53.36 47.4057 53.3051 47.3003 53.3431 47.1655L60.7609 19.6702C60.7989 19.5269 60.9297 19.4258 61.0816 19.4258H252.827M252.827 18.583H61.0816C60.55 18.583 60.0858 18.937 59.9466 19.4511L52.5287 46.9463C52.3262 47.6922 52.8916 48.4254 53.6638 48.4254H245.831C246.363 48.4254 246.827 48.0714 246.966 47.5573L253.962 20.0621C254.165 19.3162 253.599 18.583 252.827 18.583Z" fill="white"/>
<path d="M243.704 40.4611C243.704 41.1732 243.143 41.7337 242.413 41.7337C241.683 41.7337 241.114 41.1732 241.114 40.4611C241.114 39.749 241.692 39.2012 242.413 39.2012C243.135 39.2012 243.704 39.7616 243.704 40.4611ZM241.439 40.4611C241.439 41.0215 241.852 41.4682 242.422 41.4682C242.991 41.4682 243.384 41.0216 243.384 40.4695C243.384 39.9175 242.975 39.4582 242.418 39.4582C241.861 39.4582 241.443 39.9091 241.443 40.4653L241.439 40.4611ZM242.215 41.1227H241.924V39.8627C242.038 39.8417 242.202 39.8248 242.409 39.8248C242.645 39.8248 242.755 39.8627 242.848 39.9175C242.915 39.9723 242.97 40.0692 242.97 40.1956C242.97 40.3347 242.865 40.44 242.709 40.4864V40.5032C242.831 40.5496 242.903 40.6423 242.941 40.8109C242.979 41.0047 243.004 41.0805 243.034 41.1269H242.717C242.679 41.0805 242.654 40.9668 242.616 40.8193C242.595 40.6802 242.515 40.6212 242.354 40.6212H242.215V41.1269V41.1227ZM242.223 40.4105H242.363C242.523 40.4105 242.654 40.3558 242.654 40.2251C242.654 40.1114 242.569 40.0313 242.384 40.0313C242.308 40.0313 242.253 40.0397 242.223 40.0482V40.4105Z" fill="white"/>
<path d="M67.1024 25.2666H74.4063C79.4697 25.2666 80.6976 27.1249 80.6976 29.1476C80.6976 31.1702 79.3558 32.8178 76.8325 33.4752C78.3895 33.8755 79.5161 35.0259 79.5161 36.724C79.5161 39.501 77.3009 41.7343 71.6468 41.7343H62.6719L67.1024 25.2666ZM71.8155 37.571C73.1573 37.571 73.959 36.9811 73.959 36.1594C73.959 35.4515 73.3683 35.1228 72.1911 35.1228H69.8113L69.1531 37.571H71.8155ZM73.2755 31.7349C74.689 31.7349 75.3262 31.0986 75.3262 30.3949C75.3262 29.6911 74.8072 29.4299 73.6299 29.4299H71.343L70.7311 31.7349H73.2755Z" fill="white"/>
<path d="M84.6011 25.2666H98.6646L97.4409 29.7838H88.7952L88.348 31.4525H97.019L95.9599 35.4304H87.2889L86.7952 37.2171H95.559L94.3565 41.7343H80.1748L84.6053 25.2666H84.6011Z" fill="white"/>
<path d="M101.18 25.2666H106.623L108.602 31.0522L113.691 25.2666H119.746L115.315 41.7343H109.826L112.016 33.5721L106.644 39.4293H106.551L104.336 33.5721L102.146 41.7343H96.749L101.18 25.2666Z" fill="white"/>
<path d="M126.247 25.2666H131.783C134.821 25.2666 136.682 25.8566 137.909 27.0786C138.783 27.9508 139.205 29.1012 139.205 30.3949C139.205 34.5118 136.095 37.2634 130.867 37.2634H128.534L127.331 41.7343H121.821L126.251 25.2666H126.247ZM130.58 33.3361C132.677 33.3361 133.644 32.3964 133.644 31.1491C133.644 30.7952 133.5 30.4454 133.243 30.1842C132.867 29.8091 132.205 29.6659 131.593 29.6659H130.555L129.589 33.3361H130.58Z" fill="white"/>
<path d="M142.639 25.2666H149.07C152.108 25.2666 154.041 25.924 155.146 27.0322C156.066 27.9508 156.441 29.1728 156.441 30.4665C156.441 33.0327 155.1 35.2408 151.846 36.2521L154.133 41.7343H148.197L146.361 37.0274H144.994L143.72 41.7343H138.209L142.639 25.2666ZM148.036 33.1001C149.872 33.1001 150.838 32.2532 150.838 31.2166C150.838 30.8879 150.72 30.5803 150.484 30.3443C150.176 30.0367 149.635 29.8723 148.859 29.8723H146.905L146.032 33.0959H148.036V33.1001Z" fill="white"/>
<path d="M157.239 34.6044C157.239 29.4972 161.408 24.9336 166.944 24.9336C171.796 24.9336 175.142 28.1825 175.142 32.3921C175.142 37.4993 170.973 42.0629 165.437 42.0629C160.585 42.0629 157.239 38.814 157.239 34.6044ZM169.606 32.8851C169.606 31.1448 168.547 29.7795 166.568 29.7795C164.26 29.7795 162.775 32.0381 162.775 34.1071C162.775 35.8474 163.834 37.2127 165.813 37.2127C168.121 37.2127 169.606 34.9541 169.606 32.8851Z" fill="white"/>
<path d="M181.076 29.9222H176.223L177.472 25.2617H192.692L191.443 29.9222H186.591L183.409 41.7336H177.898L181.08 29.9222H181.076Z" fill="white"/>
<path d="M194.619 25.2666H208.683L207.459 29.7838H198.813L198.366 31.4525H206.86L205.801 35.4304H197.307L196.813 37.2171H205.577L204.375 41.7343H190.193L194.624 25.2666H194.619Z" fill="white"/>
<path d="M208.16 34.7472C208.16 29.3577 212.4 24.9121 219.042 24.9121C222.151 24.9121 224.814 26.2521 225.945 27.6427L222.506 31.1697C221.565 30.2974 220.151 29.6864 218.691 29.6864C215.556 29.6864 213.696 31.827 213.696 34.4859C213.696 36.5339 215.181 37.5452 216.898 37.5452C217.489 37.5452 217.957 37.4525 218.337 37.2881L218.877 35.5226H216.168L217.063 31.9956H225.004L222.649 40.3937C221.025 41.3587 218.691 42.0877 216.312 42.0877C212.215 42.0877 208.16 39.9218 208.16 34.7472Z" fill="white"/>
<path d="M229.215 25.2666H243.278L242.055 29.7838H233.409L232.962 31.4525H241.645L240.586 35.4304H231.903L231.409 37.2171H240.173L238.97 41.7343H224.789L229.219 25.2666H229.215Z" fill="white"/>
</svg>
